<?xml version="1.0" encoding="utf-8"?>
<svg xmlns="http://www.w3.org/2000/svg" xmlns:xlink="http://www.w3.org/1999/xlink" version="1.1" id="Layer_1" x="0px" y="0px" width="256px" height="256px" viewBox="0 0 256 256" style="enable-background:new 0 0 256 256;" xml:space="preserve">
<style type="text/css">
	.st0{fill:none;stroke:#000000;stroke-width:4;stroke-linecap:round;stroke-linejoin:round;stroke-miterlimit:10;}
</style>
<path class="st0" d="M174.498,158.605c-0.957,4.188,3.351,8.736,9.513,3.71c6.163-5.026,6.905-39.848,3.423-50.379  c-3.482-10.531-14.013-4.547-14.372-9.753s-4.627-12.727-11.667-20.822c-4.598-5.287-11.398-9.513-12.744-10.949  c-1.346-1.436,4.308-13.193,7.718-10.949c3.41,2.244-9.625,9.722-11.488,9.154s-9.877-2.706-17.232-2.513  c-6.039,0.159-11.847,1.167-14.539,2.513c-2.692,1.346-13.552-8.436-9.693-10.411c3.859-1.974,6.505,11.807,4.308,13.103  c-2.197,1.297-10.677,8.75-15.257,18.488c-4.469,9.501-3.524,18.422-3.051,23.514c1.348,14.533,0.269,54.298,4.487,58.337  s12.296,4.218,13.283,5.205c0.987,0.987-0.359,29.617,7.18,29.258c7.539-0.359,6.821-28.091,8.795-29.079  c1.974-0.987,11.937-1.346,13.103,0.359c1.167,1.705-0.18,30.335,9.513,29.617c9.693-0.718,6.821-27.194,8.077-29.438  c1.256-2.244,9.154-1.615,12.565-5.385c3.41-3.769,2.333-65.337,0.538-67.671c-1.795-2.333-22.005,1.697-36.977,1.795  c-13.839,0.09-29.976-1.615-37.156-2.333c-7.18-0.718-14.36,1.167-18.668,4.846c-4.308,3.68-5.385,39.22-1.974,46.849  s10.321,8.706,11.667,2.333" style="fill: none; stroke: #000000; stroke-linecap: round; stroke-linejoin: round; stroke-miterlimit: 10; stroke-width: 4;"/>
<path class="st0" d="M110.477,83.934c-1.858,0.445-3.262,2.207-3.111,3.71c0.246,2.442,4.619,4.373,6.701,2.752  c1.198-0.932,1.73-3.112,0.718-4.786C113.854,84.069,111.989,83.572,110.477,83.934z" style="fill: none; stroke: #000000; stroke-linecap: round; stroke-linejoin: round; stroke-miterlimit: 10; stroke-width: 4;"/>
<path class="st0" d="M139.296,82.961c-1.789,0.332-3.906,1.779-4.047,3.907c-0.161,2.434,2.345,4.499,4.744,4.605  c2.846,0.125,5.658-2.501,5.302-5.023C144.956,84.042,141.837,82.49,139.296,82.961z" style="fill: none; stroke: #000000; stroke-linecap: round; stroke-linejoin: round; stroke-miterlimit: 10; stroke-width: 4;"/>
<path class="st0" d="M56.761,202.763c44.191,41.954,114.243,38.779,151.938-4.133c36.804-41.898,30.94-107.186-9.156-144.738  C158.895,15.824,92.457,15.199,53.318,55.187c-60.804,62.861-12.239,133.004-8.88,134.872" style="fill: none; stroke: #000000; stroke-linecap: round; stroke-linejoin: round; stroke-miterlimit: 10; stroke-width: 4;"/>

	
	<metadata>
		<rdf:RDF xmlns:rdf="http://www.w3.org/1999/02/22-rdf-syntax-ns#" xmlns:rdfs="http://www.w3.org/2000/01/rdf-schema#" xmlns:dc="http://purl.org/dc/elements/1.1/">
			<rdf:Description about="https://iconscout.com/legal#licenses" dc:title="Android, Brand, Logo" dc:description="Android, Brand, Logo" dc:publisher="Iconscout" dc:date="2016-12-14" dc:format="image/svg+xml" dc:language="en">
				<dc:creator>
					<rdf:Bag>
						<rdf:li>Adi Sînchetru</rdf:li>
					</rdf:Bag>
				</dc:creator>
			</rdf:Description>
		</rdf:RDF>
    </metadata></svg>
