<?xml version="1.0" encoding="utf-8"?>
<svg xmlns="http://www.w3.org/2000/svg" xmlns:xlink="http://www.w3.org/1999/xlink" version="1.1" id="Layer_1" x="0px" y="0px" width="256px" height="256px" viewBox="0 0 256 256" style="enable-background:new 0 0 256 256;" xml:space="preserve">
<style type="text/css">
	.st0{fill:none;stroke:#000000;stroke-width:4;stroke-linecap:round;stroke-linejoin:round;stroke-miterlimit:10;}
</style>
<g>
	<path class="st0" d="M112.517,117.348c-11.368-0.327-31.852-1.176-33.567,0.196c-1.715,1.372-1.813,21.071,0.735,21.953   c2.548,0.882,12.022,0,18.621,0" style="fill: none; stroke: #000000; stroke-linecap: round; stroke-linejoin: round; stroke-miterlimit: 10; stroke-width: 4;"/>
	<path class="st0" d="M94.191,160.863c12.218-21.757,35.233-64.708,37.242-65.271s12.349,3.43,12.349,6.468   c0,3.038-38.614,70.637-40.574,70.76s-10.977-7.938-12.349-7.252c-1.372,0.686-3.063,15.877-1.372,16.465   c1.691,0.588,7.448-2.818,9.016-4.704" style="fill: none; stroke: #000000; stroke-linecap: round; stroke-linejoin: round; stroke-miterlimit: 10; stroke-width: 4;"/>
	<line class="st0" x1="163" y1="141" x2="130" y2="141" style="fill: none; stroke: #000000; stroke-linecap: round; stroke-linejoin: round; stroke-miterlimit: 10; stroke-width: 4;"/>
	<line class="st0" x1="144.173" y1="117.596" x2="151.818" y2="117.792" style="fill: none; stroke: #000000; stroke-linecap: round; stroke-linejoin: round; stroke-miterlimit: 10; stroke-width: 4;"/>
	<path class="st0" d="M180.631,117.152c0,0,27.539-1.274,28.813,0.588c1.274,1.862,1.47,21.169,0,22.345s-15.681,0.588-15.681,0.588   " style="fill: none; stroke: #000000; stroke-linecap: round; stroke-linejoin: round; stroke-miterlimit: 10; stroke-width: 4;"/>
	<path class="st0" d="M179.161,152.016c-3.963,2.119-38.98-75.656-35.018-78.513s46.179,78.651,45.891,79.987   c-0.288,1.336-7.096,3.306-7.372,4.792c-0.276,1.486,3.253,8.483,4.463,8.702c1.209,0.219,5.748-3.79,7.004-3.686   c1.256,0.104,6.676,4.418,9.475,9.567c2.799,5.149,0,13.408,0,13.408s-2.419-2.868-5.045-4.423   c-1.382-0.909-5.045-2.108-6.082-3.317c-1.037-1.209-2.714-3.416-1.313-6.428c1.195-2.568,2.742-3.063,3.08-3.11" style="fill: none; stroke: #000000; stroke-linecap: round; stroke-linejoin: round; stroke-miterlimit: 10; stroke-width: 4;"/>
</g>
<path class="st0" d="M244.351,160.67c15.683-58.881-20.635-118.867-76.356-131.424c-54.403-12.259-108.919,24.14-122.697,77.319  c-13.968,53.911,17.285,112.543,71.128,127.766c84.297,23.297,122.636-52.918,122.668-56.761" style="fill: none; stroke: #000000; stroke-linecap: round; stroke-linejoin: round; stroke-miterlimit: 10; stroke-width: 4;"/>

	
	<metadata>
		<rdf:RDF xmlns:rdf="http://www.w3.org/1999/02/22-rdf-syntax-ns#" xmlns:rdfs="http://www.w3.org/2000/01/rdf-schema#" xmlns:dc="http://purl.org/dc/elements/1.1/">
			<rdf:Description about="https://iconscout.com/legal#licenses" dc:title="App, Store, Appstore, Brand, Logo" dc:description="App, Store, Appstore, Brand, Logo" dc:publisher="Iconscout" dc:date="2016-12-14" dc:format="image/svg+xml" dc:language="en">
				<dc:creator>
					<rdf:Bag>
						<rdf:li>Adi Sînchetru</rdf:li>
					</rdf:Bag>
				</dc:creator>
			</rdf:Description>
		</rdf:RDF>
    </metadata></svg>
