<?xml version="1.0" encoding="utf-8"?>
<svg xmlns="http://www.w3.org/2000/svg" xmlns:xlink="http://www.w3.org/1999/xlink" version="1.1" id="Layer_1" x="0px" y="0px" width="256px" height="256px" viewBox="0 0 256 256" style="enable-background:new 0 0 256 256;" xml:space="preserve">
<style type="text/css">
	.st0{fill:none;stroke:#000000;stroke-width:4;stroke-linecap:round;stroke-linejoin:round;stroke-miterlimit:10;}
</style>
<path class="st0" d="M87.047,223.564c56.102,23.781,120.586-3.77,140.829-57.181c19.764-52.147-8.635-111.228-59.358-132.323  C117.097,12.673,54.663,35.4,32.043,86.577C-2.84,166.777,67.249,215.42,71.05,215.99" style="fill: none; stroke: #000000; stroke-linecap: round; stroke-linejoin: round; stroke-miterlimit: 10; stroke-width: 4;"/>
<path class="st0" d="M123.326,87.307C120.58,67.4,146.15,59.334,149.754,60.879c3.604,1.544-9.976,29.997-21.794,32.263  c-10.04,1.925-11.379-5.095-22.481-3.947c-11.52,1.191-27.801,5.32-36.725,26.6c-10.64,45.992,26.771,77.584,36.382,76.882  c9.61-0.702,14.758-7.723,20.936-7.551s15.102,7.238,23.682,7.208c14.084-0.05,31.577-31.233,31.577-37.411  c0-6.178-18.105-8.237-17.504-25.399c0.634-18.099,13.128-19.049,13.729-23.339c0.195-1.395-9.72-24.69-36.725-14.759" style="fill: none; stroke: #000000; stroke-linecap: round; stroke-linejoin: round; stroke-miterlimit: 10; stroke-width: 4;"/>

	
	<metadata>
		<rdf:RDF xmlns:rdf="http://www.w3.org/1999/02/22-rdf-syntax-ns#" xmlns:rdfs="http://www.w3.org/2000/01/rdf-schema#" xmlns:dc="http://purl.org/dc/elements/1.1/">
			<rdf:Description about="https://iconscout.com/legal#licenses" dc:title="Apple, Brand, Logo" dc:description="Apple, Brand, Logo" dc:publisher="Iconscout" dc:date="2016-12-14" dc:format="image/svg+xml" dc:language="en">
				<dc:creator>
					<rdf:Bag>
						<rdf:li>Adi Sînchetru</rdf:li>
					</rdf:Bag>
				</dc:creator>
			</rdf:Description>
		</rdf:RDF>
    </metadata></svg>
