<?xml version="1.0" encoding="utf-8"?>
<svg xmlns="http://www.w3.org/2000/svg" xmlns:xlink="http://www.w3.org/1999/xlink" version="1.1" id="Layer_1" x="0px" y="0px" width="256px" height="256px" viewBox="0 0 256 256" style="enable-background:new 0 0 256 256;" xml:space="preserve">
<style type="text/css">
	.st0{fill:none;stroke:#000000;stroke-width:2;stroke-linecap:round;stroke-linejoin:round;stroke-miterlimit:10;}
	.st1{fill:none;stroke:#000000;stroke-width:4;stroke-linecap:round;stroke-linejoin:round;stroke-miterlimit:10;}
</style>
<path class="st1" d="M59.783,193.846c40.938,41.4,107.935,40.482,145.23,0.637c36.413-38.903,32.783-101.432-4.377-138.505  C162.964,18.395,99.533,15.794,60.948,52.802c-59.967,58.2-15.702,126.654-12.55,128.538" style="fill: none; stroke: #000000; stroke-linecap: round; stroke-linejoin: round; stroke-miterlimit: 10; stroke-width: 4;"/>
<path class="st1" d="M69,159.932c-3.375,0.269-5.083-72.605,0.833-73.833s28.917-4,43.167,0.5s8.962,26.908-2.333,30.333  c-11.419,3.462-17.222,1.706-17.167,5.333s8,2.5,16.833,3.333C132,126.516,130,158.641,108.5,159.766s-28,0-28,0" style="fill: none; stroke: #000000; stroke-linecap: round; stroke-linejoin: round; stroke-miterlimit: 10; stroke-width: 4;"/>
<path class="st1" d="M160,133.599c10.556,0.167,29.917,0.167,31.667-2.5s1.667-22.333-20.833-23.167s-28.477,13.142-28,28.833  c0.416,13.668,2.25,25.664,26.167,25.667s23.167-13,23.167-13" style="fill: none; stroke: #000000; stroke-linecap: round; stroke-linejoin: round; stroke-miterlimit: 10; stroke-width: 4;"/>
<path class="st1" d="M152.833,91.099c10.111-0.278,20.222,0.444,30.333,0.167" style="fill: none; stroke: #000000; stroke-linecap: round; stroke-linejoin: round; stroke-miterlimit: 10; stroke-width: 4;"/>

	
	<metadata>
		<rdf:RDF xmlns:rdf="http://www.w3.org/1999/02/22-rdf-syntax-ns#" xmlns:rdfs="http://www.w3.org/2000/01/rdf-schema#" xmlns:dc="http://purl.org/dc/elements/1.1/">
			<rdf:Description about="https://iconscout.com/legal#licenses" dc:title="Behance, Brand, Logo" dc:description="Behance, Brand, Logo" dc:publisher="Iconscout" dc:date="2016-12-14" dc:format="image/svg+xml" dc:language="en">
				<dc:creator>
					<rdf:Bag>
						<rdf:li>Adi Sînchetru</rdf:li>
					</rdf:Bag>
				</dc:creator>
			</rdf:Description>
		</rdf:RDF>
    </metadata></svg>
