<?xml version="1.0" encoding="utf-8"?>
<svg xmlns="http://www.w3.org/2000/svg" xmlns:xlink="http://www.w3.org/1999/xlink" version="1.1" id="Layer_1" x="0px" y="0px" width="256px" height="256px" viewBox="0 0 256 256" style="enable-background:new 0 0 256 256;" xml:space="preserve">
<style type="text/css">
	.st0{fill:none;stroke:#000000;stroke-width:4;stroke-linecap:round;stroke-linejoin:round;stroke-miterlimit:10;}
</style>
<path class="st0" d="M59.206,202.122c44.191,41.954,114.243,38.779,151.938-4.133c36.804-41.898,30.94-107.186-9.156-144.738  C161.34,15.182,94.902,14.558,55.764,54.545c-60.804,62.861-12.239,133.004-8.88,134.872" style="fill: none; stroke: #000000; stroke-linecap: round; stroke-linejoin: round; stroke-miterlimit: 10; stroke-width: 4;"/>
<path class="st0" d="M155.11,72.885c1.302,0,35.802,19.063,35.709,21.388c-0.093,2.325-23.434,17.575-23.434,19.156  c0,1.581,27.34,17.947,27.34,21.016s-35.988,27.619-39.987,27.154c-3.999-0.465-22.132-23.434-25.666-23.434  s-23.992,22.132-26.596,22.318c-2.604,0.186-37.847-21.481-38.313-24.178c-0.465-2.697,25.201-18.137,25.666-20.272  c0.465-2.135-22.783-18.04-22.318-21.388c0.465-3.348,31.71-20.923,34.965-20.458s17.11,12.399,25.666,19.714  c11.531,7.253,34.926,16.46,35.205,19.528c0.279,3.069-32.323,20.234-35.392,19.955s-33.756-15.863-33.663-18.467  c0.093-2.604,28.897-17.849,31.563-18.73C128.522,95.307,153.808,72.885,155.11,72.885z" style="fill: none; stroke: #000000; stroke-linecap: round; stroke-linejoin: round; stroke-miterlimit: 10; stroke-width: 4;"/>
<path class="st0" d="M88.714,170.484c0.062,3.162-0.558,5.58,0.279,7.253c0.837,1.674,36.732,25.48,39.475,25.48  c2.743,0,40.684-23.899,41.521-25.48c0.837-1.581,0-5.456,0-9.299" style="fill: none; stroke: #000000; stroke-linecap: round; stroke-linejoin: round; stroke-miterlimit: 10; stroke-width: 4;"/>

	
	<metadata>
		<rdf:RDF xmlns:rdf="http://www.w3.org/1999/02/22-rdf-syntax-ns#" xmlns:rdfs="http://www.w3.org/2000/01/rdf-schema#" xmlns:dc="http://purl.org/dc/elements/1.1/">
			<rdf:Description about="https://iconscout.com/legal#licenses" dc:title="Dropbox, Brand, Logo" dc:description="Dropbox, Brand, Logo" dc:publisher="Iconscout" dc:date="2016-12-14" dc:format="image/svg+xml" dc:language="en">
				<dc:creator>
					<rdf:Bag>
						<rdf:li>Adi Sînchetru</rdf:li>
					</rdf:Bag>
				</dc:creator>
			</rdf:Description>
		</rdf:RDF>
    </metadata></svg>
