<?xml version="1.0" encoding="utf-8"?>
<svg xmlns="http://www.w3.org/2000/svg" xmlns:xlink="http://www.w3.org/1999/xlink" version="1.1" id="Layer_1" x="0px" y="0px" width="256px" height="256px" viewBox="0 0 256 256" style="enable-background:new 0 0 256 256;" xml:space="preserve">
<style type="text/css">
	.st0{fill:none;stroke:#000000;stroke-width:4;stroke-linecap:round;stroke-linejoin:round;stroke-miterlimit:10;}
</style>
<path class="st0" d="M104.232,78.173c-1.957,6.207,0.54,20.511-2.159,22.94s-23.345,2.159-25.369-2.429  c-2.024-4.588,15.451-25.74,26.449-26.449c25.419-1.637,35.354,6.612,36.974,8.096s31.172,0.405,37.514,8.366  c6.342,7.962,2.564,98.831-5.128,104.984c-7.692,6.154-35.355,5.532-39.943,1.889c-4.588-3.643-5.038-25.765-1.889-28.338  s16.327-3.239,18.082-1.619c1.754,1.619,0.945,5.263-0.54,7.017c-1.484,1.754-9.311-2.834-9.176,5.668s13.338,10.263,20.511,5.398  c4.703-3.189,4.205-11.855,2.429-16.733c-2.699-8.096-7.287-9.851-18.082-9.986c-10.795-0.135-13.359-13.359-15.653-13.224  s4.723,15.248-8.096,19.702c-9.176,2.699-31.16-2.829-36.434-7.287c-5.274-4.458-11.74-36.974-8.906-46.15" style="fill: none; stroke: #000000; stroke-linecap: round; stroke-linejoin: round; stroke-miterlimit: 10; stroke-width: 4;"/>
<path class="st0" d="M156.526,127.978c3.34,1.02,10.112,0.742,10.947-0.557c0.835-1.299-1.046-5.235-4.824-6.68  c-3.91-1.495-9.582,1.157-11.69,7.051" style="fill: none; stroke: #000000; stroke-linecap: round; stroke-linejoin: round; stroke-miterlimit: 10; stroke-width: 4;"/>
<path class="st0" d="M92.047,225.564c56.102,23.781,120.586-3.77,140.829-57.181c19.764-52.147-8.635-111.228-59.358-132.323  C122.097,14.673,59.663,37.4,37.043,88.577C2.16,168.777,72.249,217.42,76.05,217.99" style="fill: none; stroke: #000000; stroke-linecap: round; stroke-linejoin: round; stroke-miterlimit: 10; stroke-width: 4;"/>

	
	<metadata>
		<rdf:RDF xmlns:rdf="http://www.w3.org/1999/02/22-rdf-syntax-ns#" xmlns:rdfs="http://www.w3.org/2000/01/rdf-schema#" xmlns:dc="http://purl.org/dc/elements/1.1/">
			<rdf:Description about="https://iconscout.com/legal#licenses" dc:title="Evernote, Brand, Logo" dc:description="Evernote, Brand, Logo" dc:publisher="Iconscout" dc:date="2016-12-14" dc:format="image/svg+xml" dc:language="en">
				<dc:creator>
					<rdf:Bag>
						<rdf:li>Adi Sînchetru</rdf:li>
					</rdf:Bag>
				</dc:creator>
			</rdf:Description>
		</rdf:RDF>
    </metadata></svg>
