<?xml version="1.0" encoding="utf-8"?>
<svg xmlns="http://www.w3.org/2000/svg" xmlns:xlink="http://www.w3.org/1999/xlink" version="1.1" id="Layer_1" x="0px" y="0px" width="256px" height="256px" viewBox="0 0 256 256" style="enable-background:new 0 0 256 256;" xml:space="preserve">
<style type="text/css">
	.st0{fill:none;stroke:#000000;stroke-width:2;stroke-linecap:round;stroke-linejoin:round;stroke-miterlimit:10;}
	.st1{fill:none;stroke:#000000;stroke-width:4;stroke-linecap:round;stroke-linejoin:round;stroke-miterlimit:10;}
</style>
<path class="st1" d="M129.918,226.224c58.204-1.493,103.405-50.953,99.898-105.416c-3.424-53.176-51.485-93.341-103.947-91.639  c-53.185,1.725-98.51,46.177-97.954,99.638c1.362,83.554,81.562,98.159,85.094,97.153" style="fill: none; stroke: #000000; stroke-linecap: round; stroke-linejoin: round; stroke-miterlimit: 10; stroke-width: 4;"/>
<path class="st1" d="M118.318,119.715c-0.33-0.981-6.455-18.258-23.069-21.916c-15.293-3.367-33.52,6.115-37.142,23.761  c-3.449,16.808,7.912,33.417,24.684,36.45c16.333,2.953,32.424-7.94,35.757-24.454" style="fill: none; stroke: #000000; stroke-linecap: round; stroke-linejoin: round; stroke-miterlimit: 10; stroke-width: 4;"/>
<path class="st1" d="M142.08,118.331c4.506-12.591,15.783-21.042,27.914-21.224c16.061-0.241,31.106,14.053,29.99,31.605  c-1.073,16.875-16.61,29.283-32.528,27.683c-13.07-1.314-24.164-11.847-26.53-25.838" style="fill: none; stroke: #000000; stroke-linecap: round; stroke-linejoin: round; stroke-miterlimit: 10; stroke-width: 4;"/>

	
	<metadata>
		<rdf:RDF xmlns:rdf="http://www.w3.org/1999/02/22-rdf-syntax-ns#" xmlns:rdfs="http://www.w3.org/2000/01/rdf-schema#" xmlns:dc="http://purl.org/dc/elements/1.1/">
			<rdf:Description about="https://iconscout.com/legal#licenses" dc:title="Flickr, Brand, Logo" dc:description="Flickr, Brand, Logo" dc:publisher="Iconscout" dc:date="2016-12-14" dc:format="image/svg+xml" dc:language="en">
				<dc:creator>
					<rdf:Bag>
						<rdf:li>Adi Sînchetru</rdf:li>
					</rdf:Bag>
				</dc:creator>
			</rdf:Description>
		</rdf:RDF>
    </metadata></svg>
