<?xml version="1.0" encoding="utf-8"?>
<svg xmlns="http://www.w3.org/2000/svg" xmlns:xlink="http://www.w3.org/1999/xlink" version="1.1" id="Layer_1" x="0px" y="0px" width="256px" height="256px" viewBox="0 0 256 256" style="enable-background:new 0 0 256 256;" xml:space="preserve">
<style type="text/css">
	.st0{fill:none;stroke:#000000;stroke-width:4;stroke-linecap:round;stroke-linejoin:round;stroke-miterlimit:10;}
</style>
<path class="st0" d="M107.082,200.27c-4.168-2.409,0.153-27.205,1.53-35.179c2.567-14.869,5.224-15.27,5.812-26.92  c0.697-13.823-2.655-20.993,2.753-28.449c2.227-3.07,6.557-7.04,10.401-6.118c4.369,1.048,6.624,8.057,6.73,13.154  c0.134,6.467-3.23,7.948-4.895,17.742c-0.897,5.278-1.439,8.468,0.306,11.319c2.953,4.824,11.122,6.495,16.824,4.589  c11.112-3.716,17.217-22.478,12.848-37.32c-0.336-1.141-6.46-20.716-25.084-23.555c-11.591-1.766-22.547,3.784-28.755,11.93  c-4.29,5.63-9.491,16.67-5.506,24.472c2.115,4.141,5.887,5.546,6.73,11.013c0.106,0.687,0.9,6.285-2.141,8.565  c-3.271,2.452-9.493-0.049-12.848-2.753c-8.843-7.129-7.814-23.773-4.589-33.955c4.484-14.153,17.058-27.961,34.567-31.814  c20.31-4.469,43.448,5.296,52.922,25.39c9.819,20.826,1.758,45.954-13.46,56.286c-2.026,1.375-14.482,9.832-27.225,4.894  c-6.1-2.364-9.799-6.841-11.624-9.483c0.176,3.809,0.184,8.382-0.612,13.46c-1.282,8.174-7.42,25.348-11.509,26.078" style="fill: none; stroke: #000000; stroke-linecap: round; stroke-linejoin: round; stroke-miterlimit: 10; stroke-width: 4;"/>
<path class="st0" d="M234.619,134.602c-1.922-60.904-53.963-107.904-110.94-103.897c-55.63,3.912-97.368,54.458-95.262,109.352  c2.134,55.65,48.935,102.81,104.882,101.898c87.435-1.942,102.224-85.966,101.149-89.655" style="fill: none; stroke: #000000; stroke-linecap: round; stroke-linejoin: round; stroke-miterlimit: 10; stroke-width: 4;"/>

	
	<metadata>
		<rdf:RDF xmlns:rdf="http://www.w3.org/1999/02/22-rdf-syntax-ns#" xmlns:rdfs="http://www.w3.org/2000/01/rdf-schema#" xmlns:dc="http://purl.org/dc/elements/1.1/">
			<rdf:Description about="https://iconscout.com/legal#licenses" dc:title="Pinterest, Brand, Logo" dc:description="Pinterest, Brand, Logo" dc:publisher="Iconscout" dc:date="2016-12-14" dc:format="image/svg+xml" dc:language="en">
				<dc:creator>
					<rdf:Bag>
						<rdf:li>Adi Sînchetru</rdf:li>
					</rdf:Bag>
				</dc:creator>
			</rdf:Description>
		</rdf:RDF>
    </metadata></svg>
