<?xml version="1.0" encoding="utf-8"?>
<svg xmlns="http://www.w3.org/2000/svg" xmlns:xlink="http://www.w3.org/1999/xlink" version="1.1" id="Layer_1" x="0px" y="0px" width="256px" height="256px" viewBox="0 0 256 256" style="enable-background:new 0 0 256 256;" xml:space="preserve">
<style type="text/css">
	.st0{fill:none;stroke:#000000;stroke-width:2;stroke-linecap:round;stroke-linejoin:round;stroke-miterlimit:10;}
	.st1{fill:none;stroke:#000000;stroke-width:4;stroke-linecap:round;stroke-linejoin:round;stroke-miterlimit:10;}
</style>
<path class="st1" d="M224.181,120.546c-5.721-57.941-58.337-99.426-112.401-91.969c-52.786,7.281-89.35,58.135-83.838,110.335  c5.588,52.919,53.218,94.892,106.497,90.45c83.234-7.434,91.969-88.484,90.708-91.933" style="fill: none; stroke: #000000; stroke-linecap: round; stroke-linejoin: round; stroke-miterlimit: 10; stroke-width: 4;"/>
<path class="st1" d="M93.298,94.056c-0.396-1.981-29.256-1.981-31.172,0.396c-1.915,2.377-5.283,27.935-3.566,29.19  s8.784-10.831,22.85-8.189c18.34,2.813,18.026,37.379,42.87,38.832s27.134-38.964,52.097-39.625  c28.134-0.66,27.473,39.304,0.132,39.568c-23.114-0.66-24.727-39.881-51.493-39.172s-23.891,37.959-49.55,38.681  c-15.586,0-20.133-14.057-20.133-14.057" style="fill: none; stroke: #000000; stroke-linecap: round; stroke-linejoin: round; stroke-miterlimit: 10; stroke-width: 4;"/>

	
	<metadata>
		<rdf:RDF xmlns:rdf="http://www.w3.org/1999/02/22-rdf-syntax-ns#" xmlns:rdfs="http://www.w3.org/2000/01/rdf-schema#" xmlns:dc="http://purl.org/dc/elements/1.1/">
			<rdf:Description about="https://iconscout.com/legal#licenses" dc:title="Social, Px, 500, Brand, Logo" dc:description="Social, Px, 500, Brand, Logo" dc:publisher="Iconscout" dc:date="2016-12-14" dc:format="image/svg+xml" dc:language="en">
				<dc:creator>
					<rdf:Bag>
						<rdf:li>Adi Sînchetru</rdf:li>
					</rdf:Bag>
				</dc:creator>
			</rdf:Description>
		</rdf:RDF>
    </metadata></svg>
