<?xml version="1.0" encoding="utf-8"?>
<svg xmlns="http://www.w3.org/2000/svg" xmlns:xlink="http://www.w3.org/1999/xlink" version="1.1" id="Layer_1" x="0px" y="0px" width="256px" height="256px" viewBox="0 0 256 256" style="enable-background:new 0 0 256 256;" xml:space="preserve">
<style type="text/css">
	.st0{fill:none;stroke:#000000;stroke-width:4;stroke-linecap:round;stroke-linejoin:round;stroke-miterlimit:10;}
</style>
<path class="st0" d="M232.487,124.71c-4.841-60.741-59.077-105.191-115.796-98.456C61.313,32.83,22.047,85.32,26.784,140.05  c4.801,55.484,53.81,100.345,109.649,96.75c87.242-6.134,97.983-90.77,96.732-94.404" style="fill: none; stroke: #000000; stroke-linecap: round; stroke-linejoin: round; stroke-miterlimit: 10; stroke-width: 4;"/>
<path id="tumblr" class="st0" d="M79.776,107.714c2.462-0.344,18.542,1.575,29.509-11.695c8.937-10.814,5.878-23.632,6.968-24.783  s19.027-1.03,20.117,0c1.091,1.03-0.545,29.57,0.606,30.782s22.178-1.212,23.389-0.485c1.212,0.727,1.454,20.723,0,22.783  c-1.454,2.06-23.389-0.97-24.48,0.485s-0.545,31.751,0.242,37.568c0.788,5.817,3.766,10.772,9.453,11.876  c7.938,1.757,11.998-2.484,13.573-1.939s5.575,15.209,5.332,16.724c-0.242,1.515-54.171,27.752-58.413-21.572  c-0.364-5.817,0.848-41.568,0-43.143c-0.848-1.575-12.981,0.208-14.3-1.135c-1.32-1.342-0.727-8.715-0.727-8.715" style="fill: none; stroke: #000000; stroke-linecap: round; stroke-linejoin: round; stroke-miterlimit: 10; stroke-width: 4;"/>

	
	<metadata>
		<rdf:RDF xmlns:rdf="http://www.w3.org/1999/02/22-rdf-syntax-ns#" xmlns:rdfs="http://www.w3.org/2000/01/rdf-schema#" xmlns:dc="http://purl.org/dc/elements/1.1/">
			<rdf:Description about="https://iconscout.com/legal#licenses" dc:title="Tumblr, Brand, Logo" dc:description="Tumblr, Brand, Logo" dc:publisher="Iconscout" dc:date="2016-12-14" dc:format="image/svg+xml" dc:language="en">
				<dc:creator>
					<rdf:Bag>
						<rdf:li>Adi Sînchetru</rdf:li>
					</rdf:Bag>
				</dc:creator>
			</rdf:Description>
		</rdf:RDF>
    </metadata></svg>
