<?xml version="1.0" encoding="utf-8"?>
<svg xmlns="http://www.w3.org/2000/svg" xmlns:xlink="http://www.w3.org/1999/xlink" version="1.1" id="Layer_1" x="0px" y="0px" width="256px" height="256px" viewBox="0 0 256 256" style="enable-background:new 0 0 256 256;" xml:space="preserve">
<style type="text/css">
	.st0{fill:none;stroke:#000000;stroke-width:4;stroke-linecap:round;stroke-linejoin:round;stroke-miterlimit:10;}
</style>
<path class="st0" d="M225.574,125.71c-4.841-60.741-59.077-105.191-115.796-98.456C54.4,33.83,15.134,86.32,19.87,141.05  c4.801,55.484,53.81,100.345,109.649,96.75c87.242-6.134,97.983-90.77,96.732-94.404" style="fill: none; stroke: #000000; stroke-linecap: round; stroke-linejoin: round; stroke-miterlimit: 10; stroke-width: 4;"/>
<path class="st0" d="M175.895,139.213c-2.643,0.854-7.253,1.94-12.796,1.084c-9.151-1.412-17.531-7.602-21.255-16.049  c-6.178-14.014-2.024-31.665,8.242-29.496s4.121,27.653,4.988,29.713c0.868,2.06,13.085,4.771,16.049,3.687  c2.964-1.084,11.23-32.297-4.121-45.329c-8.952-7.6-22.902-8.742-33.183-3.253c-14.606,7.798-15.844,33.725-10.41,47.932  c5.964,16.592,18.977,21.255,19.086,23.207c0.108,1.952-18.869,29.207-22.122,29.93c-3.253,0.723-14.854-20.58-22.122-38.172  c-7.885-19.083-9.163-46.034-10.194-47.064s-20.062-0.542-20.821,0.434c-0.759,0.976,3.248,29.981,10.627,49.884  c2.369,6.389,21.561,58.154,42.293,56.39c7.005-0.596,12.767-7.988,24.291-22.773c7.364-9.448,14.531-23.478,15.833-23.857  c1.301-0.38,12.579-0.651,16.049-1.952" style="fill: none; stroke: #000000; stroke-linecap: round; stroke-linejoin: round; stroke-miterlimit: 10; stroke-width: 4;"/>

	
	<metadata>
		<rdf:RDF xmlns:rdf="http://www.w3.org/1999/02/22-rdf-syntax-ns#" xmlns:rdfs="http://www.w3.org/2000/01/rdf-schema#" xmlns:dc="http://purl.org/dc/elements/1.1/">
			<rdf:Description about="https://iconscout.com/legal#licenses" dc:title="Vimeo, Brand, Logo" dc:description="Vimeo, Brand, Logo" dc:publisher="Iconscout" dc:date="2016-12-14" dc:format="image/svg+xml" dc:language="en">
				<dc:creator>
					<rdf:Bag>
						<rdf:li>Adi Sînchetru</rdf:li>
					</rdf:Bag>
				</dc:creator>
			</rdf:Description>
		</rdf:RDF>
    </metadata></svg>
