<?xml version="1.0" encoding="utf-8"?>
<svg xmlns="http://www.w3.org/2000/svg" xmlns:xlink="http://www.w3.org/1999/xlink" version="1.1" id="Layer_1" x="0px" y="0px" width="256px" height="256px" viewBox="0 0 256 256" style="enable-background:new 0 0 256 256;" xml:space="preserve">
<style type="text/css">
	.st0{fill:none;stroke:#000000;stroke-width:4;stroke-linecap:round;stroke-linejoin:round;stroke-miterlimit:10;}
</style>
<g>
	<path class="st0" d="M121.688,87.765c5.744-3.789,65.202-9.411,65.202-9.411s1.558,53.714-0.061,55.364   c-1.619,1.65-64.408,2.658-65.508,0s0-38.131,0-38.131" style="fill: none; stroke: #000000; stroke-linecap: round; stroke-linejoin: round; stroke-miterlimit: 10; stroke-width: 4;"/>
	<path class="st0" d="M110.933,88.499c-5.133-1.589-45.281,3.758-47.237,6.111s-2.292,37.472-0.061,39.109   c2.23,1.637,46.595,1.742,48.886,0c2.292-1.742,0-39.598,0-39.598" style="fill: none; stroke: #000000; stroke-linecap: round; stroke-linejoin: round; stroke-miterlimit: 10; stroke-width: 4;"/>
	<path class="st0" d="M122.788,189.816c2.933,1.833,62.391,9.9,64.102,9.35s2.872-53.164,0.183-55.181   c-2.689-2.017-61.353-3.392-64.286-1.467s-1.467,38.131-1.467,38.131" style="fill: none; stroke: #000000; stroke-linecap: round; stroke-linejoin: round; stroke-miterlimit: 10; stroke-width: 4;"/>
	<path class="st0" d="M110.077,188.349c-6.355,1.467-45.213-4.064-47.42-7.211c-2.207-3.147-2.292-36.512,0-38.62   s47.848-2.108,49.864,0s0.489,39.354,0.489,39.354" style="fill: none; stroke: #000000; stroke-linecap: round; stroke-linejoin: round; stroke-miterlimit: 10; stroke-width: 4;"/>
</g>
<path class="st0" d="M29.367,107.308c-15.255,58.994,21.499,118.714,77.309,130.865c54.491,11.864,108.741-24.931,122.132-78.209  c13.576-54.011-18.103-112.414-72.055-127.246C72.289,10.035,34.505,86.527,34.501,90.37" style="fill: none; stroke: #000000; stroke-linecap: round; stroke-linejoin: round; stroke-miterlimit: 10; stroke-width: 4;"/>

	
	<metadata>
		<rdf:RDF xmlns:rdf="http://www.w3.org/1999/02/22-rdf-syntax-ns#" xmlns:rdfs="http://www.w3.org/2000/01/rdf-schema#" xmlns:dc="http://purl.org/dc/elements/1.1/">
			<rdf:Description about="https://iconscout.com/legal#licenses" dc:title="Windows, Brand, Logo" dc:description="Windows, Brand, Logo" dc:publisher="Iconscout" dc:date="2016-12-14" dc:format="image/svg+xml" dc:language="en">
				<dc:creator>
					<rdf:Bag>
						<rdf:li>Adi Sînchetru</rdf:li>
					</rdf:Bag>
				</dc:creator>
			</rdf:Description>
		</rdf:RDF>
    </metadata></svg>
