<?xml version="1.0" encoding="utf-8"?>
<svg xmlns="http://www.w3.org/2000/svg" xmlns:xlink="http://www.w3.org/1999/xlink" version="1.1" id="Layer_1" x="0px" y="0px" width="256px" height="256px" viewBox="0 0 256 256" style="enable-background:new 0 0 256 256;" xml:space="preserve">
<style type="text/css">
	.st0{fill:none;stroke:#000000;stroke-width:4;stroke-linecap:round;stroke-linejoin:round;stroke-miterlimit:10;}
</style>
<path class="st0" d="M125.157,33.168C64.729,40.999,23.009,97.362,32.533,153.68c9.299,54.986,63.662,91.615,118.092,84.185  c55.18-7.532,97.568-58.694,91.224-114.287c-10.43-86.833-95.493-93.387-99.06-91.958" style="fill: none; stroke: #000000; stroke-linecap: round; stroke-linejoin: round; stroke-miterlimit: 10; stroke-width: 4;"/>
<path id="xing" class="st0" d="M164.23,81.157c-2.004,0.143-39.51,66.923-39.51,68.999c0,2.076,23.978,44.069,25.481,44.663  c1.503,0.594,26.125,1.217,27.199,0.286c1.074-0.93-26.555-42.659-26.626-44.377c-0.072-1.718,41.371-67.639,40.655-69.572  c-0.716-1.933-11.643-1.336-18.323-0.859" style="fill: none; stroke: #000000; stroke-linecap: round; stroke-linejoin: round; stroke-miterlimit: 10; stroke-width: 4;"/>
<path id="xing_1_" class="st0" d="M127.297,128.683c1.36-1.789-11.667-26.054-13.17-27.199s-25.696-1.36-26.34,0.286  c-0.644,1.646,14.458,23.548,14.601,26.054s-20.471,32.209-19.755,33.497c0.716,1.288,23.62,0.573,25.195-0.286  c1.575-0.859,10.307-16.033,15.46-24.049" style="fill: none; stroke: #000000; stroke-linecap: round; stroke-linejoin: round; stroke-miterlimit: 10; stroke-width: 4;"/>

	
	<metadata>
		<rdf:RDF xmlns:rdf="http://www.w3.org/1999/02/22-rdf-syntax-ns#" xmlns:rdfs="http://www.w3.org/2000/01/rdf-schema#" xmlns:dc="http://purl.org/dc/elements/1.1/">
			<rdf:Description about="https://iconscout.com/legal#licenses" dc:title="Xing, Brand, Logo" dc:description="Xing, Brand, Logo" dc:publisher="Iconscout" dc:date="2016-12-14" dc:format="image/svg+xml" dc:language="en">
				<dc:creator>
					<rdf:Bag>
						<rdf:li>Adi Sînchetru</rdf:li>
					</rdf:Bag>
				</dc:creator>
			</rdf:Description>
		</rdf:RDF>
    </metadata></svg>
